<svg width="20" height="20" viewBox="0 0 20 20" fill="none" xmlns="http://www.w3.org/2000/svg">
<g clip-path="url(#clip0_497_4590)">
<path d="M2.5 16.6L5.925 13.1625L6.875 14.1125L3.4 17.5L2.5 16.6Z" fill="white"/>
<path d="M13.1625 5.8875L16.6 2.5L17.5375 3.4375L14.1125 6.8375L13.1625 5.8875Z" fill="white"/>
<path d="M0 9.3375H4.85V10.6625H0V9.3375Z" fill="white"/>
<path d="M15.15 9.3375H20V10.6625H15.15V9.3375Z" fill="white"/>
<path d="M2.5 3.4L3.4 2.5L6.8375 5.8875L5.8875 6.8375L2.5 3.4Z" fill="white"/>
<path d="M13.1625 14.1125L14.1125 13.1625L17.5 16.6L16.5625 17.5375L13.1625 14.1125Z" fill="white"/>
<path d="M9.3375 0H10.6625V4.85H9.3375V0Z" fill="white"/>
<path d="M9.3375 15.15H10.6625V20H9.3375V15.15Z" fill="white"/>
<path d="M10 5.8125C9.17179 5.8125 8.36218 6.05809 7.67355 6.51822C6.98492 6.97835 6.4482 7.63235 6.13125 8.39751C5.81431 9.16268 5.73139 10.0046 5.89296 10.8169C6.05454 11.6292 6.45336 12.3754 7.03899 12.961C7.62462 13.5466 8.37076 13.9455 9.18306 14.107C9.99536 14.2686 10.8373 14.1857 11.6025 13.8687C12.3677 13.5518 13.0217 13.0151 13.4818 12.3265C13.9419 11.6378 14.1875 10.8282 14.1875 10C14.1875 8.88941 13.7463 7.8243 12.961 7.03899C12.1757 6.25368 11.1106 5.8125 10 5.8125ZM10 12.85C9.43632 12.85 8.88531 12.6829 8.41663 12.3697C7.94795 12.0565 7.58265 11.6114 7.36694 11.0906C7.15123 10.5699 7.09479 9.99684 7.20476 9.44399C7.31473 8.89115 7.58617 8.38333 7.98475 7.98475C8.38333 7.58617 8.89115 7.31473 9.44399 7.20476C9.99684 7.09479 10.5699 7.15123 11.0906 7.36694C11.6114 7.58265 12.0565 7.94794 12.3697 8.41663C12.6829 8.8853 12.85 9.43632 12.85 10C12.85 10.7559 12.5497 11.4808 12.0153 12.0153C11.4808 12.5497 10.7559 12.85 10 12.85Z" fill="white"/>
</g>
<defs>
<clipPath id="clip0_497_4590">
<rect width="20" height="20" fill="white"/>
</clipPath>
</defs>
</svg>
