<svg width="17" height="6" viewBox="0 0 17 6" fill="none" xmlns="http://www.w3.org/2000/svg">
<path d="M15.7646 0.00390625H15.7725L15.7803 0.00488281C16.2596 0.0576682 16.5996 0.486367 16.5996 0.966797V2.43848L16.5986 2.48145V2.49121L16.2988 2.47363L16.5977 2.49121C16.5798 2.79105 16.4297 3.07416 16.1787 3.24414L12.9258 5.44727L12.915 5.4541L12.9141 5.45312L12.8779 5.47656L12.8701 5.48145L12.7197 5.22168L12.8691 5.48145C12.7553 5.54699 12.6287 5.58762 12.4971 5.59766L12.4854 5.59863V5.59766L12.4424 5.59961H4.16797C4.01343 5.5995 3.86335 5.55793 3.73047 5.48145L3.72168 5.47656L3.68457 5.45312L3.67383 5.44727L0.420898 3.24414C0.169894 3.07416 0.0198326 2.79105 0.00195312 2.49121L0.000976562 2.48145L0 2.43848V0.966797C0 0.456031 0.387405 8.65734e-05 0.915039 0H15.7012L15.7646 0.00390625ZM0.917969 0.93457C0.913596 0.939426 0.907227 0.950213 0.907227 0.966797V2.43066C0.907283 2.44049 0.909942 2.44888 0.913086 2.45508C0.916155 2.46108 0.918955 2.46415 0.919922 2.46484L4.17285 4.66602H12.4268L15.6797 2.46484C15.6807 2.46415 15.6835 2.46108 15.6865 2.45508C15.6897 2.44888 15.6923 2.44049 15.6924 2.43066V0.966797C15.6924 0.950213 15.686 0.939426 15.6816 0.93457L15.6807 0.933594H0.918945L0.917969 0.93457ZM12.4541 2.33301C12.7267 2.33326 12.9072 2.56526 12.9072 2.7998C12.9072 3.03435 12.7267 3.26635 12.4541 3.2666H4.4541C4.21555 3.2666 4.04634 3.08915 4.00781 2.8877L4 2.7998L4.00781 2.71191C4.04634 2.51046 4.21555 2.33301 4.4541 2.33301H12.4541Z" fill="white"/>
</svg>
