<svg width="20" height="20" viewBox="0 0 20 20" fill="none" xmlns="http://www.w3.org/2000/svg">
<g clip-path="url(#clip0_497_4550)">
<path d="M15.5 8.575C15.224 8.29457 15.016 7.95463 14.8918 7.58128C14.7677 7.20792 14.7307 6.81108 14.7838 6.42123C14.837 6.03138 14.9787 5.65888 15.1982 5.33234C15.4177 5.00579 15.7091 4.73389 16.05 4.5375C16.4304 4.30358 16.7449 3.97648 16.9636 3.58713C17.1823 3.19779 17.2981 2.75908 17.3 2.3125C17.3125 0.85 15.475 0 13.95 0C7.5 0 2.5 4.65 2.5 10.8C2.50165 12.998 3.17315 15.1433 4.425 16.95C5.09278 17.9081 5.98583 18.6874 7.02555 19.2192C8.06528 19.7511 9.2198 20.0192 10.3875 20C11.2995 20.0266 12.2077 19.8724 13.0598 19.5463C13.9118 19.2202 14.6909 18.7287 15.3521 18.1C16.0133 17.4714 16.5435 16.718 16.9122 15.8835C17.2808 15.0489 17.4806 14.1496 17.5 13.2375C17.4663 11.4821 16.7487 9.80921 15.5 8.575ZM10.3875 18.6625C9.44638 18.6665 8.51848 18.4408 7.68424 18.0052C6.85 17.5696 6.13459 16.9371 5.6 16.1625L5.5375 16.075C4.47479 14.5201 3.90028 12.6834 3.8875 10.8C3.8875 5.4125 8.2125 1.3375 13.95 1.3375C14.9875 1.3375 15.9625 1.8875 15.9625 2.3125C15.9629 2.52493 15.9092 2.73396 15.8064 2.91987C15.7036 3.10577 15.5551 3.26241 15.375 3.375C14.7895 3.726 14.3047 4.22231 13.9674 4.81581C13.6301 5.40931 13.4519 6.07987 13.45 6.7625C13.4503 7.76306 13.8352 8.72523 14.525 9.45C15.0192 9.94096 15.4108 10.5254 15.6769 11.1692C15.943 11.813 16.0784 12.5034 16.075 13.2C16.0721 13.9357 15.9214 14.6632 15.6317 15.3395C15.342 16.0157 14.9193 16.6268 14.3887 17.1364C13.8581 17.646 13.2305 18.0437 12.5431 18.3059C11.8558 18.568 11.1227 18.6893 10.3875 18.6625Z" fill="white"/>
<path d="M9.325 5.25C9.32748 5.43346 9.27534 5.61351 9.17522 5.76726C9.0751 5.92101 8.93152 6.04152 8.76273 6.11345C8.59394 6.18538 8.40757 6.20549 8.22733 6.17122C8.04708 6.13696 7.88109 6.04986 7.75048 5.92101C7.61986 5.79216 7.53051 5.62737 7.49379 5.44761C7.45708 5.26784 7.47465 5.08122 7.54428 4.91147C7.61391 4.74171 7.73245 4.5965 7.88482 4.4943C8.0372 4.3921 8.21652 4.33752 8.4 4.3375C8.64317 4.33748 8.87658 4.43322 9.04969 4.60399C9.22281 4.77477 9.32171 5.00685 9.325 5.25Z" fill="white"/>
<path d="M13.3875 3.275C13.3898 3.46003 13.3366 3.64151 13.2348 3.79598C13.1329 3.95046 12.987 4.07083 12.816 4.14154C12.645 4.21225 12.4568 4.23005 12.2756 4.19264C12.0943 4.15522 11.9285 4.06432 11.7995 3.93167C11.6705 3.79902 11.5842 3.63073 11.5518 3.44854C11.5195 3.26635 11.5425 3.07864 11.6179 2.90967C11.6934 2.7407 11.8177 2.59824 11.975 2.50069C12.1322 2.40315 12.3151 2.35501 12.5 2.3625C12.7366 2.37208 12.9606 2.47205 13.1257 2.64182C13.2908 2.81158 13.3845 3.0382 13.3875 3.275Z" fill="white"/>
<path d="M7.1 9.3C7.1 9.11705 7.04575 8.93821 6.94411 8.7861C6.84247 8.63398 6.698 8.51542 6.52898 8.44541C6.35996 8.3754 6.17397 8.35708 5.99454 8.39277C5.81511 8.42846 5.65029 8.51656 5.52093 8.64593C5.39156 8.77529 5.30347 8.94011 5.26777 9.11954C5.23208 9.29897 5.2504 9.48496 5.32041 9.65398C5.39042 9.823 5.50898 9.96747 5.6611 10.0691C5.81321 10.1707 5.99205 10.225 6.175 10.225C6.42033 10.225 6.6556 10.1275 6.82907 9.95407C7.00255 9.7806 7.1 9.54533 7.1 9.3Z" fill="white"/>
<path d="M11.4125 16.625C11.415 16.8085 11.3628 16.9885 11.2627 17.1423C11.1626 17.296 11.019 17.4165 10.8502 17.4884C10.6814 17.5604 10.4951 17.5805 10.3148 17.5462C10.1346 17.512 9.96859 17.4249 9.83798 17.296C9.70736 17.1672 9.61801 17.0024 9.58129 16.8226C9.54458 16.6428 9.56215 16.4562 9.63178 16.2865C9.70141 16.1167 9.81995 15.9715 9.97232 15.8693C10.1247 15.7671 10.304 15.7125 10.4875 15.7125C10.7307 15.7125 10.9641 15.8082 11.1372 15.979C11.3103 16.1498 11.4092 16.3818 11.4125 16.625Z" fill="white"/>
<path d="M14.7 13.65C14.6975 13.8299 14.6419 14.0051 14.5402 14.1535C14.4384 14.3019 14.2951 14.4169 14.1281 14.4841C13.9612 14.5512 13.7781 14.5675 13.6019 14.5309C13.4258 14.4943 13.2643 14.4064 13.138 14.2783C13.0116 14.1502 12.9259 13.9876 12.8917 13.811C12.8575 13.6343 12.8763 13.4515 12.9457 13.2855C13.0151 13.1195 13.1321 12.9777 13.2819 12.878C13.4316 12.7782 13.6076 12.725 13.7875 12.725C13.9084 12.725 14.0281 12.749 14.1396 12.7956C14.2511 12.8423 14.3523 12.9106 14.4372 12.9967C14.5221 13.0827 14.589 13.1848 14.6342 13.297C14.6793 13.4091 14.7017 13.5291 14.7 13.65Z" fill="white"/>
<path d="M6.6875 12.875C6.50351 12.8725 6.32297 12.925 6.16895 13.0257C6.01493 13.1264 5.89444 13.2707 5.82289 13.4402C5.75133 13.6097 5.73196 13.7967 5.76726 13.9773C5.80255 14.1579 5.8909 14.3239 6.02101 14.454C6.15112 14.5841 6.31708 14.6725 6.49767 14.7077C6.67826 14.743 6.86527 14.7237 7.03479 14.6521C7.20432 14.5806 7.34865 14.4601 7.44933 14.306C7.55001 14.152 7.60247 13.9715 7.6 13.7875C7.59676 13.5465 7.49959 13.3163 7.32916 13.1458C7.15873 12.9754 6.9285 12.8782 6.6875 12.875Z" fill="white"/>
</g>
<defs>
<clipPath id="clip0_497_4550">
<rect width="20" height="20" fill="white"/>
</clipPath>
</defs>
</svg>
