<svg width="20" height="20" viewBox="0 0 20 20" fill="none" xmlns="http://www.w3.org/2000/svg">
<g clip-path="url(#clip0_497_4500)">
<path d="M9.275 0H10.775V7.9875H9.275V0Z" fill="white"/>
<path d="M13.0625 3.0375V4.45C14.449 4.97475 15.6463 5.90318 16.4997 7.11536C17.3531 8.32754 17.8235 9.76777 17.85 11.25C17.7879 13.2725 16.927 15.1881 15.4558 16.5774C13.9845 17.9666 12.0228 18.7164 10 18.6625C7.97721 18.7164 6.01549 17.9666 4.54425 16.5774C3.073 15.1881 2.2121 13.2725 2.15 11.25C2.18723 9.76055 2.66723 8.31594 3.5288 7.10039C4.39036 5.88484 5.59445 4.95345 6.9875 4.425V3.0125C5.21968 3.55664 3.66977 4.647 2.56033 6.127C1.45089 7.60701 0.838988 9.40052 0.8125 11.25C0.874735 13.6273 1.8766 15.8829 3.59865 17.523C5.32069 19.163 7.62254 20.0537 10 20C12.3775 20.0537 14.6793 19.163 16.4014 17.523C18.1234 15.8829 19.1253 13.6273 19.1875 11.25C19.1592 9.41109 18.5521 7.62786 17.4526 6.1536C16.3531 4.67935 14.817 3.58902 13.0625 3.0375Z" fill="white"/>
</g>
<defs>
<clipPath id="clip0_497_4500">
<rect width="20" height="20" fill="white"/>
</clipPath>
</defs>
</svg>
