<svg width="16" height="16" viewBox="0 0 16 16" fill="none" xmlns="http://www.w3.org/2000/svg">
<path d="M3.46002 0V16H12.54V0H3.46002ZM11.46 1.07V2.07H4.53002V1.07H11.46ZM11.46 3.13V11.13H4.53002V3.13H11.46ZM4.53002 14.93V12.19H11.47V14.93H4.53002Z" fill="white"/>
<path d="M8.70002 13.54C8.70002 13.6784 8.65897 13.8138 8.58205 13.9289C8.50513 14.044 8.39581 14.1337 8.2679 14.1867C8.13999 14.2397 7.99925 14.2536 7.86346 14.2266C7.72767 14.1995 7.60294 14.1329 7.50505 14.035C7.40715 13.9371 7.34048 13.8123 7.31347 13.6766C7.28646 13.5408 7.30032 13.4 7.35331 13.2721C7.40629 13.1442 7.49601 13.0349 7.61112 12.958C7.72624 12.8811 7.86158 12.84 8.00002 12.84C8.18567 12.84 8.36372 12.9137 8.495 13.045C8.62627 13.1763 8.70002 13.3543 8.70002 13.54Z" fill="white"/>
</svg>
