<svg width="20" height="20" viewBox="0 0 20 20" fill="none" xmlns="http://www.w3.org/2000/svg">
<g clip-path="url(#clip0_497_4655)">
<path d="M0 20H9.3875V0H0V20ZM1.3375 1.3375H8.0625V18.6625H1.3375V1.3375Z" fill="white"/>
<path d="M10.6125 0V20H20V0H10.6125ZM18.6625 18.6625H11.9375V1.3375H18.6625V18.6625Z" fill="white"/>
<path d="M15.3 12.7125C15.0943 12.7125 14.8932 12.7737 14.7223 12.8883C14.5514 13.0028 14.4185 13.1656 14.3403 13.3559C14.2622 13.5462 14.2424 13.7555 14.2834 13.957C14.3245 14.1586 14.4246 14.3435 14.5709 14.4881C14.7173 14.6326 14.9033 14.7305 15.1054 14.7691C15.3074 14.8077 15.5164 14.7853 15.7058 14.7049C15.8951 14.6244 16.0563 14.4895 16.1688 14.3173C16.2812 14.145 16.34 13.9432 16.3375 13.7375C16.3375 13.6018 16.3106 13.4675 16.2583 13.3423C16.206 13.2172 16.1294 13.1036 16.0329 13.0083C15.9364 12.9129 15.8219 12.8377 15.6961 12.7869C15.5703 12.7361 15.4357 12.7108 15.3 12.7125Z" fill="white"/>
<path d="M15.3 9.225C15.8192 9.225 16.3267 9.07105 16.7584 8.78261C17.1901 8.49417 17.5265 8.0842 17.7252 7.60454C17.9239 7.12489 17.9758 6.59709 17.8746 6.08789C17.7733 5.57869 17.5233 5.11096 17.1562 4.74384C16.789 4.37673 16.3213 4.12672 15.8121 4.02544C15.3029 3.92415 14.7751 3.97614 14.2955 4.17482C13.8158 4.3735 13.4058 4.70995 13.1174 5.14163C12.829 5.57331 12.675 6.08082 12.675 6.6C12.6783 7.29518 12.9559 7.96095 13.4475 8.45252C13.939 8.9441 14.6048 9.22171 15.3 9.225ZM15.3 5.3C15.5472 5.3 15.7889 5.37331 15.9945 5.51066C16.2 5.64801 16.3602 5.84324 16.4548 6.07165C16.5495 6.30005 16.5742 6.55139 16.526 6.79386C16.4777 7.03634 16.3587 7.25907 16.1839 7.43388C16.0091 7.6087 15.7863 7.72775 15.5439 7.77598C15.3014 7.82421 15.0501 7.79946 14.8216 7.70485C14.5932 7.61024 14.398 7.45002 14.2607 7.24446C14.1233 7.0389 14.05 6.79723 14.05 6.55C14.05 6.21848 14.1817 5.90054 14.4161 5.66612C14.6505 5.4317 14.9685 5.3 15.3 5.3Z" fill="white"/>
<path d="M4.7 12.7125C4.49376 12.71 4.29146 12.7691 4.11894 12.8821C3.94642 12.9952 3.81151 13.1571 3.73144 13.3472C3.65137 13.5372 3.62978 13.7469 3.66941 13.9493C3.70904 14.1517 3.80811 14.3377 3.95395 14.4835C4.0998 14.6294 4.2858 14.7285 4.48822 14.7681C4.69063 14.8077 4.90026 14.7861 5.09034 14.7061C5.28042 14.626 5.44232 14.4911 5.55537 14.3186C5.66841 14.146 5.72747 13.9437 5.725 13.7375C5.72176 13.4667 5.61272 13.2078 5.4212 13.0163C5.22967 12.8248 4.97084 12.7157 4.7 12.7125Z" fill="white"/>
<path d="M4.7 3.975C4.18082 3.975 3.67331 4.12895 3.24163 4.41739C2.80995 4.70583 2.4735 5.1158 2.27482 5.59546C2.07614 6.07511 2.02415 6.60291 2.12544 7.11211C2.22672 7.62131 2.47673 8.08904 2.84384 8.45616C3.21096 8.82327 3.67869 9.07328 4.18789 9.17456C4.69709 9.27585 5.22489 9.22386 5.70454 9.02518C6.1842 8.8265 6.59417 8.49005 6.88261 8.05837C7.17105 7.62669 7.325 7.11918 7.325 6.6C7.32171 5.90482 7.0441 5.23905 6.55252 4.74748C6.06095 4.2559 5.39518 3.97829 4.7 3.975ZM4.7 7.9C4.45277 7.9 4.2111 7.82669 4.00554 7.68934C3.79998 7.55199 3.63976 7.35676 3.54515 7.12835C3.45054 6.89995 3.42579 6.64861 3.47402 6.40614C3.52225 6.16366 3.6413 5.94093 3.81612 5.76612C3.99093 5.5913 4.21366 5.47225 4.45614 5.42402C4.69861 5.37579 4.94995 5.40054 5.17835 5.49515C5.40676 5.58976 5.60199 5.74998 5.73934 5.95554C5.87669 6.1611 5.95 6.40277 5.95 6.65C5.95 6.98152 5.8183 7.29946 5.58388 7.53388C5.34946 7.7683 5.03152 7.9 4.7 7.9Z" fill="white"/>
</g>
<defs>
<clipPath id="clip0_497_4655">
<rect width="20" height="20" fill="white"/>
</clipPath>
</defs>
</svg>
