<svg width="17" height="6" viewBox="0 0 17 6" fill="none" xmlns="http://www.w3.org/2000/svg">
<path d="M14.1191 0.00292969H14.127V0.00390625C15.5249 0.0806334 16.5996 1.32328 16.5996 2.7998C16.5996 4.27633 15.5249 5.51898 14.127 5.5957L14.1191 5.59668L14 5.59961H2.60742C1.14511 5.59957 0 4.32311 0 2.7998C0 1.32328 1.07469 0.0806332 2.47266 0.00390625L2.48047 0.00292969L2.59961 0H14L14.1191 0.00292969ZM2.60742 0.933594C1.69073 0.933638 0.907227 1.74584 0.907227 2.7998C0.907227 3.85377 1.69073 4.66597 2.60742 4.66602H13.9922C14.9089 4.66597 15.6924 3.85377 15.6924 2.7998C15.6924 1.74584 14.9089 0.933638 13.9922 0.933594H2.60742ZM15.9355 3.30371C15.9405 3.28125 15.9469 3.25905 15.9512 3.23633L15.9531 3.22363C15.9482 3.25062 15.9414 3.2771 15.9355 3.30371ZM12.4541 2.33301C12.7267 2.33326 12.9072 2.56526 12.9072 2.7998C12.9072 3.03435 12.7267 3.26635 12.4541 3.2666H4.4541C4.21555 3.2666 4.04634 3.08915 4.00781 2.8877L4 2.7998L4.00781 2.71191C4.04634 2.51046 4.21555 2.33301 4.4541 2.33301H12.4541ZM14.5547 0.375C14.6263 0.394442 14.6968 0.416855 14.7656 0.443359C14.628 0.390285 14.4842 0.35118 14.3359 0.327148L14.5547 0.375Z" fill="white"/>
</svg>
